<svg xmlns="http://www.w3.org/2000/svg" viewBox="0 0 66.18 51.86"><defs><linearGradient id="a" x1="14.97" y1="59.22" x2="46" y2="-.2" gradientTransform="matrix(1 0 0 -1 0 52.34)" gradientUnits="userSpaceOnUse"><stop offset="0" stop-color="#d10a42"/><stop offset="1" stop-color="#0041ca"/></linearGradient></defs><path d="M30.54 6.34L14.6 51.17H4.23l16-42.33H0V.69h30.54zm35.64 24q0 10.47-3.81 16a12.3 12.3 0 01-10.82 5.55 12.45 12.45 0 01-10.78-5.37Q37 41.08 36.85 31v-9.51q0-10.44 3.78-15.95A12.34 12.34 0 0151.48 0a12.38 12.38 0 0110.85 5.48q3.78 5.52 3.85 15.63zm-9.84-10.27q0-6-1.18-8.94t-3.67-3q-4.68 0-4.85 10.92v12.6q0 6.1 1.18 9.08t3.74 3q2.39 0 3.54-2.77t1.25-8.56z" fill="url(#a)"/></svg>