<svg xmlns="http://www.w3.org/2000/svg" viewBox="0 0 102.13 51.86"><defs><linearGradient id="a" x1="37.43" y1="64.01" x2="60.91" y2="-3.44" gradientTransform="matrix(1 0 0 -1 0 52.34)" gradientUnits="userSpaceOnUse"><stop offset="0" stop-color="#d10a42"/><stop offset="1" stop-color="#0041ca"/></linearGradient></defs><path d="M9.71 21.46h4.75a4.41 4.41 0 004-1.87 8.93 8.93 0 001.28-5.06 7.37 7.37 0 00-1.32-4.68 4.12 4.12 0 00-3.47-1.7 4.17 4.17 0 00-3.36 1.59 6.21 6.21 0 00-1.28 4H.45a13.88 13.88 0 011.8-7.07 12.89 12.89 0 015.1-4.92A15.14 15.14 0 0114.63 0q7 0 10.92 3.85t4 10.54a12 12 0 01-1.8 6.38A12.07 12.07 0 0123 25.24a10.71 10.71 0 015.3 4.58A14.13 14.13 0 0130.09 37a14.13 14.13 0 01-4.3 10.78q-4.26 4.06-11.23 4.06A14.39 14.39 0 014 47.88a14.25 14.25 0 01-4-10.54h9.81a7.2 7.2 0 001.42 4.54 4.37 4.37 0 003.61 1.84 4.78 4.78 0 004-1.87 7.79 7.79 0 001.49-5q0-7.45-5.79-7.49H9.71zm28.19 4.89L40.39.69h24.44v8.39h-16.4l-.9 10.82a10.39 10.39 0 015.86-1.9q6.24 0 9.6 4.44T66.39 35q0 7.59-4 12.24a13.5 13.5 0 01-10.75 4.65 15.05 15.05 0 01-7.4-1.89 14.17 14.17 0 01-5.37-5.27 15.23 15.23 0 01-2-7.63h9.71a9.14 9.14 0 001.57 4.9 4.19 4.19 0 007.14-.59q1.32-2.36 1.32-7 0-4.41-1.61-6.61a5.07 5.07 0 00-4.4-2.22 5.19 5.19 0 00-4.3 1.91l-.62.87zm64.24 4q0 10.47-3.81 16a12.3 12.3 0 01-10.83 5.51 12.45 12.45 0 01-10.78-5.37Q72.94 41.08 72.8 31v-9.51q0-10.44 3.78-15.95A12.34 12.34 0 0187.43 0a12.38 12.38 0 0110.85 5.48q3.78 5.48 3.85 15.64zm-9.85-10.28q0-6-1.18-8.94t-3.67-3q-4.68 0-4.85 10.92v12.6q0 6.1 1.18 9.08t3.74 3q2.39 0 3.54-2.77t1.25-8.56z" fill="url(#a)"/></svg>