<svg xmlns="http://www.w3.org/2000/svg" viewBox="0 0 63.93 51.17"><defs><linearGradient id="a" x1="11.65" y1="57.5" x2="43.17" y2="-1.19" gradientTransform="matrix(1 0 0 -1 0 50.95)" gradientUnits="userSpaceOnUse"><stop offset="0" stop-color="#d10a42"/><stop offset="1" stop-color="#0041ca"/></linearGradient></defs><path d="M1 25.65L3.5 0h24.44v8.39h-16.4l-.9 10.82a10.39 10.39 0 015.86-1.91q6.24 0 9.6 4.44t3.4 12.55q0 7.59-4 12.24a13.5 13.5 0 01-10.75 4.65 15.05 15.05 0 01-7.4-1.88A14.17 14.17 0 012 44a15.23 15.23 0 01-2-7.6h9.71a9.14 9.14 0 001.56 4.89 4.19 4.19 0 007.14-.59q1.32-2.36 1.32-7 0-4.37-1.59-6.59a5.07 5.07 0 00-4.4-2.22 5.19 5.19 0 00-4.3 1.91l-.62.87zm53.11-3.47h9.81v9.12h-9.8v14.12h-9.29V31.31h-10v-9.12h10V8.67h9.29z" fill="url(#a)"/></svg>