<svg xmlns="http://www.w3.org/2000/svg" viewBox="0 0 103.2 54.05"><path d="M20.27 53.33H10V13.15L0 17V8.49L19.19.65h1.08zm45.49-21.75q0 10.91-4 16.69a12.82 12.82 0 01-11.27 5.78 13 13 0 01-11.24-5.6q-3.94-5.64-4.08-16.12V22.4q0-10.88 3.94-16.62A12.86 12.86 0 0150.44 0a12.91 12.91 0 0111.31 5.71q3.94 5.71 4 16.3zM55.5 20.92q0-6.21-1.23-9.32t-3.83-3.11q-4.88 0-5.06 11.38V33q0 6.36 1.23 9.47t3.9 3.11q2.49 0 3.69-2.89t1.3-8.92zm47.7 10.66q0 10.91-4 16.69a12.82 12.82 0 01-11.27 5.78 13 13 0 01-11.24-5.6q-3.94-5.64-4.08-16.12V22.4q0-10.88 3.94-16.62A12.86 12.86 0 0187.88 0a12.91 12.91 0 0111.3 5.71q3.94 5.71 4 16.3zM92.93 20.92q0-6.21-1.23-9.32t-3.82-3.11q-4.88 0-5.06 11.38V33q0 6.36 1.23 9.47t3.9 3.11q2.49 0 3.69-2.89t1.3-8.92z" fill="#fff"/></svg>