<svg xmlns="http://www.w3.org/2000/svg" viewBox="0 0 101.33 51.86"><defs><linearGradient id="a" x1="26.23" y1="67.46" x2="48.68" y2="29.35" gradientTransform="matrix(1 0 0 -1 0 52.34)" gradientUnits="userSpaceOnUse"><stop offset="0" stop-color="#d10a42"/><stop offset="1" stop-color="#0041ca"/></linearGradient></defs><path d="M19.21 31.65a9.42 9.42 0 01-6.83 3.19 10.61 10.61 0 01-9.08-4.61Q0 25.58 0 17.85a21.81 21.81 0 011.87-9.11 15.14 15.14 0 015.2-6.45A13 13 0 0114.56 0a12.21 12.21 0 017.59 2.53 16.21 16.21 0 015.17 7.28 29.43 29.43 0 011.84 10.75v3.57q0 12.9-5.69 20.18T7.42 51.69h-1v-8.46h.66q5.75 0 8.63-3t3.5-8.58zm-4.33-4.51q2.84 0 4.47-3.88v-4.5A18.22 18.22 0 0018 11q-1.35-2.84-3.5-2.84T11.06 11a16.13 16.13 0 00-1.28 6.79 14.75 14.75 0 001.35 6.9 4.14 4.14 0 003.74 2.46zm50.54 3.16q0 10.47-3.81 16a12.3 12.3 0 01-10.82 5.55A12.45 12.45 0 0140 46.49Q36.23 41.08 36.09 31v-9.51q0-10.44 3.78-15.95A12.34 12.34 0 0150.72 0a12.38 12.38 0 0110.85 5.48q3.78 5.52 3.85 15.63zm-9.85-10.23q0-6-1.18-8.94t-3.67-3q-4.68 0-4.85 10.92v12.6q0 6.1 1.18 9.08t3.74 3q2.39 0 3.54-2.77t1.25-8.56zm45.76 10.23q0 10.47-3.81 16a12.3 12.3 0 01-10.82 5.56 12.45 12.45 0 01-10.78-5.37Q72.14 41.08 72 31v-9.51q0-10.44 3.78-15.95A12.34 12.34 0 0186.64 0a12.38 12.38 0 0110.85 5.48q3.78 5.48 3.85 15.64zm-9.84-10.23q0-6-1.18-8.94t-3.67-3q-4.68 0-4.85 10.92v12.6q0 6.1 1.18 9.08t3.74 3q2.39 0 3.54-2.77t1.25-8.56z" fill="url(#a)"/></svg>